# xmcd CD database file
#
# Track frame offsets:
#	150
#	25389
#	55023
#	81563
#	110004
#	144485
#
# Disc length: 2323 seconds
#
# Revision: 0
# Processed by: cddbd v1.5.1PL2 Copyright (c) Steve Scherf et al.
# Submitted via: CDex 1.51
#
DISCID=50091106
DTITLE=Lee Morgan - Delightfulee Morgan
DYEAR=1966
DGENRE=Jazz
TTITLE0=Ca-Lee-So
TTITLE1=Zambia
TTITLE2=Yesterday
TTITLE3=Sunrise Sunset
TTITLE4=Nite Flite
TTITLE5=The Delightful Deggie
EXTD=YEAR: 1966
EXTT0=
EXTT1=
EXTT2=
EXTT3=
EXTT4=
EXTT5=
PLAYORDER=
